# xmcd
#
# Track frame offsets:
#	150
#	22620
#	40363
#	60498
#	78383
#	96825
#	116750
#	139313
#	160898
#	180938
#	201340
#	222373
#	243973
#	263605
#	287965
#
# Disc length: 4163
#
# Revision: 1
# Processed by: cddbd v1.5.1PL0 Copyright (c) Steve Scherf et al.
# Submitted via: CDex 1.51
# Normalized: r0:DSETVAR1
#
DISCID=cf10410f
DTITLE=Various Artist - HI-NRG '80S VOL.7 - NON-STOP MIX
DYEAR=1900
DGENRE=Disco
TTITLE0=SAME - SOPHIE
TTITLE1=I'M SINGING AGAIN - WILSON FERGUSON
TTITLE2=LITTLE RUSSIAN - MR.ZIVAGO
TTITLE3=EASY LOVE - VICKI BENSON
TTITLE4=KEEP ON DANCING - CLIO and KAY
TTITLE5=AMERICA MEDLEY WITH P.MACHINERY - CRUISIN' GANG
TTITLE6=LEAVE ME ALONE - FRED VENTURA
TTITLE7=MAY DAY - EDDY HUNTINGTON
TTITLE8=I NEED A MAN - MAN 2 MAN FEATURING PAUL ZONE and MAN PARRISH
TTITLE9=COUNTDOWN - KOFI and THE LOVETONES
TTITLE10=LOVE GUN - SPECIAL TOUCH
TTITLE11=NO! MR. BOOM BOOM - BODY HEAT
TTITLE12=YOU'VE GOT TO MOVE IT ON - ROFO
TTITLE13=JUST FOR YOU - MANUELA
TTITLE14=S.T.O.P. - SAMANTHA GILES
EXTD=
EXTT0=
EXTT1=
EXTT2=
EXTT3=
EXTT4=
EXTT5=
EXTT6=
EXTT7=
EXTT8=
EXTT9=
EXTT10=
EXTT11=
EXTT12=
EXTT13=
EXTT14=
PLAYORDER=
